HIERARCHY
ROOT Storm:Solving:Root
{
	OFFSET 0.000000 0.000000 0.000000
	CHANNELS 6 Xposition Yposition Zposition Xrotation Yrotation Zrotation
	JOINT Storm:Solving:L_Clav
	{
		OFFSET 0.000000 0.000000 0.000000
		CHANNELS 6 Xposition Yposition Zposition Xrotation Yrotation Zrotation
		JOINT Storm:Solving:L_Scapula_Joint
		{
			OFFSET 4.000000 0.000000 0.000000
			CHANNELS 6 Xposition Yposition Zposition Xrotation Yrotation Zrotation
			JOINT Storm:Solving:L_Shoulder_Joint
			{
				OFFSET 4.002680 -11.084217 10.770057
				CHANNELS 6 Xposition Yposition Zposition Xrotation Yrotation Zrotation
				JOINT Storm:Solving:L_Elbow_Joint
				{
					OFFSET 2.147804 -15.161016 -8.035206
					CHANNELS 6 Xposition Yposition Zposition Xrotation Yrotation Zrotation
					JOINT Storm:Solving:L_Wrist_Joint
					{
						OFFSET -2.240269 -20.029085 -9.040075
						CHANNELS 6 Xposition Yposition Zposition Xrotation Yrotation Zrotation
						JOINT Storm:Solving:L_Paw_Joint
						{
							OFFSET 0.706234 -5.721245 1.834930
							CHANNELS 6 Xposition Yposition Zposition Xrotation Yrotation Zrotation
							JOINT Storm:Solving:NewBone_4
							{
								OFFSET 1.343818 -3.510090 4.244948
								CHANNELS 6 Xposition Yposition Zposition Xrotation Yrotation Zrotation
								End Site
								{
									OFFSET 5.410949 0.263100 -1.672891
								}
							}
						}
					}
				}
			}
		}
	}
	JOINT Storm:Solving:R_Clav
	{
		OFFSET 0.000000 0.000000 0.000000
		CHANNELS 6 Xposition Yposition Zposition Xrotation Yrotation Zrotation
		JOINT Storm:Solving:R_Scapula_Joint
		{
			OFFSET -4.000000 -0.000000 0.000001
			CHANNELS 6 Xposition Yposition Zposition Xrotation Yrotation Zrotation
			JOINT Storm:Solving:NewBone_3
			{
				OFFSET -4.614829 -11.686039 9.889529
				CHANNELS 6 Xposition Yposition Zposition Xrotation Yrotation Zrotation
				JOINT Storm:Solving:R_Elbow_Joint
				{
					OFFSET -0.160743 -16.404385 -5.491840
					CHANNELS 6 Xposition Yposition Zposition Xrotation Yrotation Zrotation
					JOINT Storm:Solving:R_Wrist_Joint
					{
						OFFSET 2.412016 -21.935680 1.190893
						CHANNELS 6 Xposition Yposition Zposition Xrotation Yrotation Zrotation
						JOINT Storm:Solving:R_Paw_Joint
						{
							OFFSET -0.535018 -3.351765 3.806499
							CHANNELS 6 Xposition Yposition Zposition Xrotation Yrotation Zrotation
							JOINT Storm:Solving:NewBone_5
							{
								OFFSET -0.877549 -2.975662 5.252175
								CHANNELS 6 Xposition Yposition Zposition Xrotation Yrotation Zrotation
								End Site
								{
									OFFSET 5.926299 0.585030 1.321637
								}
							}
						}
					}
				}
			}
		}
	}
	JOINT Storm:Solving:Root_To_Spine_Dummy
	{
		OFFSET 0.000000 0.000000 0.000000
		CHANNELS 6 Xposition Yposition Zposition Xrotation Yrotation Zrotation
		JOINT Storm:Solving:Spine1
		{
			OFFSET 0.000000 0.000000 -3.827275
			CHANNELS 6 Xposition Yposition Zposition Xrotation Yrotation Zrotation
			JOINT Storm:Solving:Spine2
			{
				OFFSET 0.000001 0.000000 -16.939260
				CHANNELS 6 Xposition Yposition Zposition Xrotation Yrotation Zrotation
				JOINT Storm:Solving:Spine3
				{
					OFFSET 0.000002 0.000000 -14.393892
					CHANNELS 6 Xposition Yposition Zposition Xrotation Yrotation Zrotation
					JOINT Storm:Solving:Pelvis_Root
					{
						OFFSET 0.000002 0.000000 -14.393890
						CHANNELS 6 Xposition Yposition Zposition Xrotation Yrotation Zrotation
						JOINT Storm:Solving:L_Pelvis
						{
							OFFSET 0.000000 0.000000 0.000000
							CHANNELS 6 Xposition Yposition Zposition Xrotation Yrotation Zrotation
							JOINT Storm:Solving:LFemur_Joint
							{
								OFFSET 8.318080 -6.780918 -6.728058
								CHANNELS 6 Xposition Yposition Zposition Xrotation Yrotation Zrotation
								JOINT Storm:Solving:LTibia_Joint
								{
									OFFSET 4.762119 -18.232958 12.109562
									CHANNELS 6 Xposition Yposition Zposition Xrotation Yrotation Zrotation
									JOINT Storm:Solving:LAnkle_Joint
									{
										OFFSET 1.748854 -18.426313 -12.690502
										CHANNELS 6 Xposition Yposition Zposition Xrotation Yrotation Zrotation
										JOINT Storm:Solving:LFoot_Joint
										{
											OFFSET 2.893215 -10.324425 3.420891
											CHANNELS 6 Xposition Yposition Zposition Xrotation Yrotation Zrotation
											JOINT Storm:Solving:LFoot_End
											{
												OFFSET 3.317142 -1.153622 6.178677
												CHANNELS 6 Xposition Yposition Zposition Xrotation Yrotation Zrotation
												End Site
												{
													OFFSET 6.285072 0.685661 -3.246243
												}
											}
										}
									}
								}
							}
						}
						JOINT Storm:Solving:R_Pelvis
						{
							OFFSET 0.000000 0.000000 0.000000
							CHANNELS 6 Xposition Yposition Zposition Xrotation Yrotation Zrotation
							JOINT Storm:Solving:RFemur_Joint
							{
								OFFSET -8.082922 -7.104603 -6.553699
								CHANNELS 6 Xposition Yposition Zposition Xrotation Yrotation Zrotation
								JOINT Storm:Solving:RTibia_Joint
								{
									OFFSET -3.034004 -18.950596 11.551186
									CHANNELS 6 Xposition Yposition Zposition Xrotation Yrotation Zrotation
									JOINT Storm:Solving:RAnkle_Joint
									{
										OFFSET 0.163292 -19.936810 -10.210636
										CHANNELS 6 Xposition Yposition Zposition Xrotation Yrotation Zrotation
										JOINT Storm:Solving:RFoot_Joint
										{
											OFFSET -0.793680 -9.967937 0.101715
											CHANNELS 6 Xposition Yposition Zposition Xrotation Yrotation Zrotation
											JOINT Storm:Solving:RFoot_End
											{
												OFFSET -4.434014 -1.490955 4.525612
												CHANNELS 6 Xposition Yposition Zposition Xrotation Yrotation Zrotation
												End Site
												{
													OFFSET -4.697033 0.328136 -4.493862
												}
											}
										}
									}
								}
							}
						}
					}
				}
			}
		}
	}
	JOINT Storm:Solving:Root_To_Neck
	{
		OFFSET 0.000000 0.000000 0.000000
		CHANNELS 6 Xposition Yposition Zposition Xrotation Yrotation Zrotation
		JOINT Storm:Solving:Neck1
		{
			OFFSET 0.000000 4.185541 5.729186
			CHANNELS 6 Xposition Yposition Zposition Xrotation Yrotation Zrotation
			JOINT Storm:Solving:Neck2
			{
				OFFSET 2.125778 5.862305 7.100437
				CHANNELS 6 Xposition Yposition Zposition Xrotation Yrotation Zrotation
				JOINT Storm:Solving:Head
				{
					OFFSET -4.381103 5.689912 1.801980
					CHANNELS 6 Xposition Yposition Zposition Xrotation Yrotation Zrotation
					JOINT Storm:Solving:Head_End
					{
						OFFSET -9.753127 2.579648 15.562063
						CHANNELS 6 Xposition Yposition Zposition Xrotation Yrotation Zrotation
						End Site
						{
							OFFSET -4.085257 17.259090 -5.421284
						}
					}
				}
			}
		}
	}
	JOINT Storm:Solving:R_Clav_1
	{
		OFFSET 0.000000 0.000000 0.000000
		CHANNELS 6 Xposition Yposition Zposition Xrotation Yrotation Zrotation
		End Site
		{
			OFFSET 0.000000 0.010000 -0.000000
		}
	}
}
MOTION
Frames: 4
Frame Time: 0.008333
31.801786 54.608929 -35.818222 21.885722 15.857881 -3.664642 -0.000001 0.000001 0.000001 -4.239208 -0.821074 10.941785 4.000002 0.000001 0.000005 -2.546459 3.228805 -22.962782 4.002671 -11.084218 10.770058 -4.182718 -8.831386 -2.971609 2.147803 -15.161010 -8.035208 -39.050182 -6.042786 11.622779 -2.240267 -20.029083 -9.040075 -10.421019 -11.840147 7.541139 0.706230 -5.721245 1.834928 19.374477 -0.078946 -6.029937 1.343817 -3.510093 4.244946 0.000007 0.000002 -0.000000 -0.000001 0.000001 0.000001 2.211167 -0.218041 -5.628922 -3.999995 -0.000002 0.000001 3.764472 -2.081753 -3.717989 -4.614834 -11.686043 9.889530 13.948511 -3.636028 2.599478 -0.160740 -16.404383 -5.491844 -46.246395 -5.321401 0.180398 2.412018 -21.935690 1.190885 120.254059 0.293151 8.799237 -0.535017 -3.351760 3.806497 0.999554 0.100632 0.222087 -0.877546 -2.975672 5.252169 0.000006 0.000000 0.000001 -0.000001 0.000001 0.000001 0.000001 0.000001 -0.000000 -0.000000 0.000002 -3.827275 -17.655173 -8.852787 -7.730155 -0.000001 0.000005 -16.939257 -4.957243 4.221586 -8.791479 0.000004 0.000009 -14.393891 2.464071 0.427680 4.178452 0.000001 -0.000004 -14.393881 7.893123 7.811907 1.037788 0.000004 -0.000002 -0.000011 -0.000003 0.000003 0.000003 8.318077 -6.780911 -6.728065 10.501943 -2.630928 -9.289856 4.762112 -18.232954 12.109564 -8.826438 -2.063576 1.452128 1.748851 -18.426304 -12.690508 -2.652990 -2.462989 -5.743869 2.893205 -10.324419 3.420886 -11.392552 -1.832271 5.763727 3.317137 -1.153625 6.178680 0.000001 0.000003 -0.000001 0.000007 0.000004 -0.000008 0.000000 0.000003 -0.000000 -8.082923 -7.104609 -6.553698 -22.707512 -8.644783 13.596248 -3.034002 -18.950592 11.551180 -5.045997 0.430208 -0.830395 0.163289 -19.936813 -10.210630 -6.951011 0.209165 8.841906 -0.793682 -9.967938 0.101709 22.153104 2.591664 21.174666 -4.434018 -1.490961 4.525613 0.000002 0.000004 0.000002 -0.000001 0.000001 0.000001 -0.000000 0.000001 -0.000001 -0.000005 4.185541 5.729189 0.838770 1.692545 -1.700623 2.125775 5.862311 7.100436 42.166087 20.433865 -17.417235 -4.381110 5.689912 1.801966 -14.788813 -6.580930 5.255291 -9.753122 2.579653 15.562062 -0.000002 0.000001 0.000003 -0.000001 0.000001 0.000001 -0.000001 0.000001 -0.000001 
32.110519 54.578247 -35.040340 21.786738 16.156317 -3.367883 0.000003 -0.000006 0.000003 -3.820498 -0.795584 11.745942 3.999999 -0.000000 -0.000000 -2.083379 2.435079 -23.419488 4.002680 -11.084214 10.770058 -4.281948 -8.828414 -3.816370 2.147805 -15.161016 -8.035208 -39.064953 -5.785159 11.797565 -2.240265 -20.029089 -9.040081 -10.312835 -11.752288 7.755223 0.706231 -5.721243 1.834932 18.316390 -0.021955 -5.703643 1.343812 -3.510094 4.244947 0.000004 0.000001 0.000000 0.000003 -0.000006 0.000003 1.780666 -0.193233 -6.191362 -4.000002 -0.000002 -0.000003 3.146618 -2.392147 -3.114549 -4.614829 -11.686044 9.889531 14.223041 -2.973922 2.081996 -0.160744 -16.404385 -5.491845 -49.588553 -5.684335 0.026727 2.412021 -21.935688 1.190892 130.238211 4.795867 7.430742 -0.535020 -3.351761 3.806495 -6.849850 -0.582704 -1.562427 -0.877548 -2.975664 5.252171 0.000005 -0.000001 0.000002 0.000003 -0.000006 0.000003 -0.000001 0.000001 -0.000000 0.000003 -0.000005 -3.827275 -17.399063 -8.928998 -7.875362 0.000002 -0.000001 -16.939262 -5.222520 4.223233 -9.022583 0.000002 0.000001 -14.393890 2.421927 0.403469 4.124237 -0.000000 0.000004 -14.393887 8.024093 7.984857 1.466796 -0.000002 -0.000003 0.000004 -0.000003 0.000002 -0.000000 8.318074 -6.780920 -6.728066 11.448099 -2.796042 -9.368363 4.762117 -18.232952 12.109551 -9.262569 -2.171376 1.515672 1.748857 -18.426306 -12.690510 -1.849169 -2.515103 -6.286450 2.893212 -10.324423 3.420897 -12.108696 -1.986582 6.115816 3.317142 -1.153622 6.178682 -0.000000 0.000003 0.000000 0.000002 0.000003 0.000004 -0.000000 0.000002 -0.000004 -8.082924 -7.104597 -6.553706 -22.746325 -6.435375 13.196524 -3.034009 -18.950605 11.551190 -8.344081 0.750518 -1.351905 0.163293 -19.936810 -10.210638 -4.916843 0.413332 10.731052 -0.793681 -9.967940 0.101712 21.726347 2.461517 20.768041 -4.434013 -1.490957 4.525623 -0.000001 0.000005 -0.000000 0.000003 -0.000006 0.000003 0.000002 0.000000 -0.000001 -0.000005 4.185537 5.729190 0.440157 -0.090387 -0.055904 2.125780 5.862309 7.100432 45.375607 19.132719 -21.646971 -4.381108 5.689909 1.801978 -16.137874 -5.552038 6.260561 -9.753127 2.579651 15.562062 0.000000 -0.000002 0.000001 0.000003 -0.000006 0.000003 -0.000002 0.000002 -0.000001 
32.423096 54.543152 -34.256901 21.592810 16.446582 -3.100387 -0.000000 -0.000004 -0.000002 -3.342203 -0.759929 12.795340 3.999996 -0.000001 -0.000001 -1.574331 1.619461 -24.102382 4.002673 -11.084216 10.770058 -4.507034 -8.314657 -4.300675 2.147804 -15.161016 -8.035210 -38.946538 -5.887567 11.290874 -2.240272 -20.029089 -9.040080 -10.174602 -11.534681 8.160060 0.706232 -5.721241 1.834925 17.184003 0.032339 -5.353443 1.343816 -3.510098 4.244949 0.000006 0.000004 0.000000 -0.000000 -0.000004 -0.000002 1.340469 -0.147137 -6.262806 -3.999995 -0.000001 0.000001 2.582805 -2.677724 -3.062012 -4.614830 -11.686044 9.889534 14.511374 -1.710151 1.721884 -0.160743 -16.404383 -5.491839 -53.140812 -6.059246 -0.159553 2.412018 -21.935678 1.190898 136.692876 9.584071 4.391010 -0.535020 -3.351771 3.806497 -10.644965 -0.823537 -2.453224 -0.877551 -2.975666 5.252172 -0.000002 0.000000 -0.000001 -0.000000 -0.000004 -0.000002 -0.000001 -0.000000 0.000000 -0.000001 -0.000004 -3.827276 -17.041860 -8.980552 -7.895436 0.000005 0.000003 -16.939255 -5.481694 4.177358 -9.075905 -0.000002 0.000005 -14.393892 2.294446 0.460807 4.294864 0.000003 -0.000002 -14.393881 8.314195 7.998905 1.522850 -0.000001 -0.000002 0.000000 -0.000001 0.000003 -0.000000 8.318089 -6.780915 -6.728065 12.376063 -3.015263 -9.519547 4.762123 -18.232954 12.109554 -9.690504 -2.277645 1.577244 1.748847 -18.426317 -12.690516 -1.080284 -2.577728 -6.812701 2.893212 -10.324428 3.420878 -12.746628 -2.127887 6.428199 3.317144 -1.153629 6.178682 0.000002 0.000004 0.000001 0.000002 0.000005 0.000004 0.000001 0.000000 -0.000002 -8.082924 -7.104609 -6.553701 -22.762604 -4.268056 12.777885 -3.034006 -18.950598 11.551199 -11.057916 1.036455 -1.766977 0.163295 -19.936813 -10.210630 -2.835382 0.584469 11.482840 -0.793692 -9.967942 0.101720 21.702463 2.454333 20.745270 -4.434006 -1.490957 4.525605 0.000002 0.000003 -0.000000 -0.000000 -0.000004 -0.000002 0.000003 -0.000001 0.000001 -0.000006 4.185534 5.729190 0.009668 -2.586072 2.091427 2.125776 5.862306 7.100435 49.327292 16.508255 -27.415906 -4.381106 5.689909 1.801970 -18.290121 -3.787510 7.849069 -9.753124 2.579655 15.562062 -0.000002 0.000001 0.000002 -0.000000 -0.000004 -0.000002 -0.000002 0.000000 -0.000000 
32.757462 54.508369 -33.462460 21.338493 16.834541 -2.867606 -0.000000 -0.000001 -0.000003 -2.846991 -0.712991 14.048350 3.999997 0.000001 -0.000003 -1.065613 0.713475 -25.099605 4.002676 -11.084216 10.770064 -4.763884 -7.797773 -4.585985 2.147810 -15.161010 -8.035207 -38.750962 -5.815526 10.843052 -2.240270 -20.029087 -9.040074 -9.994066 -11.510393 8.347828 0.706237 -5.721238 1.834931 16.000594 0.081653 -4.986496 1.343821 -3.510090 4.244950 0.000005 0.000001 0.000000 -0.000000 -0.000001 -0.000003 0.973740 -0.105202 -6.165730 -4.000004 0.000003 -0.000006 2.128363 -2.984964 -3.293015 -4.614830 -11.686037 9.889527 14.676237 -0.055626 1.598756 -0.160746 -16.404390 -5.491848 -56.968552 -6.449108 -0.385908 2.412015 -21.935684 1.190888 139.497093 12.974564 1.767933 -0.535016 -3.351768 3.806500 -10.772250 -0.830588 -2.483351 -0.877549 -2.975671 5.252169 0.000005 0.000001 0.000001 -0.000000 -0.000001 -0.000003 0.000000 0.000002 -0.000000 -0.000002 0.000002 -3.827277 -16.605817 -9.103500 -7.775449 0.000005 0.000001 -16.939264 -5.792439 4.115388 -9.084251 -0.000001 0.000005 -14.393891 2.181085 0.579893 5.484113 -0.000001 -0.000003 -14.393888 8.791005 7.737044 0.529178 -0.000001 -0.000003 0.000000 0.000001 -0.000001 -0.000000 8.318089 -6.780928 -6.728062 13.291706 -3.151540 -9.766481 4.762112 -18.232956 12.109560 -10.120903 -2.385002 1.638382 1.748855 -18.426315 -12.690514 -0.199936 -2.675702 -7.451403 2.893218 -10.324423 3.420889 -13.444904 -2.286732 6.768738 3.317137 -1.153629 6.178679 0.000002 0.000002 0.000002 0.000001 0.000003 0.000004 -0.000000 0.000006 -0.000007 -8.082922 -7.104599 -6.553692 -22.688577 -2.497714 12.400437 -3.034011 -18.950588 11.551181 -13.104538 1.265052 -2.070994 0.163298 -19.936806 -10.210632 -0.433249 0.649348 11.182236 -0.793682 -9.967936 0.101710 21.637459 2.434820 20.683322 -4.434012 -1.490958 4.525612 0.000001 0.000003 -0.000001 -0.000000 -0.000001 -0.000003 0.000005 0.000002 -0.000000 0.000001 4.185544 5.729193 -0.636735 -6.502957 5.204784 2.125769 5.862308 7.100438 54.245291 10.994931 -35.816272 -4.381104 5.689909 1.801988 -22.347021 -0.368727 10.664731 -9.753123 2.579644 15.562062 -0.000003 -0.000001 0.000002 -0.000000 -0.000001 -0.000003 -0.000000 0.000000 -0.000000 
